<svg xmlns="http://www.w3.org/2000/svg" width="640" height="480"><rect id="backgroundrect" width="100%" height="100%" x="0" y="0" fill="none" stroke="none"/>
 <title>Gas Flame Logo</title>
 <defs>
  <linearGradient id="svg_199" x2="0.4960939884185791" y2="0.953125" x1="0.4921880066394806" y1="0.296875">
   <stop stop-color="#ff7f00" stop-opacity="0.996094" offset="0.007813"/>
   <stop offset="0.550781" stop-opacity="0.996094" stop-color="#bf0000"/>
   <stop stop-color="#000000" stop-opacity="0.992188" offset="1"/>
  </linearGradient>
  <linearGradient id="svg_200" x2="0.4960939884185791" y2="0.953125" x1="0.4921880066394806" y1="0.296875">
   <stop stop-color="#ff7f00" stop-opacity="0.996094" offset="0.007813"/>
   <stop offset="0.550781" stop-opacity="0.996094" stop-color="#bf0000"/>
   <stop stop-color="#000000" stop-opacity="0.992188" offset="1"/>
  </linearGradient>
  <linearGradient id="svg_201" x2="0.4960939884185791" y2="0.953125" x1="0.4921880066394806" y1="0.296875">
   <stop stop-color="#ff7f00" stop-opacity="0.996094" offset="0.007813"/>
   <stop offset="0.550781" stop-opacity="0.996094" stop-color="#bf0000"/>
   <stop stop-color="#000000" stop-opacity="0.992188" offset="1"/>
  </linearGradient>
 </defs>
 <g class="currentLayer">
  <title>Layer 1</title>
  
  
  
  
 <g class="selected" id="svg_1"><text xml:space="preserve" text-anchor="middle" font-family="Arial" font-size="24" id="svg_12" y="207.33173028215936" x="145.46497124740566" opacity="0.5" stroke-linecap="square" stroke-linejoin="null" stroke-dasharray="null" stroke-width="0" stroke="#096388" fill="#000000" class="" transform="matrix(1.2741869588445525,0,0,1.2741869588445525,-44.460970062220156,-3.1828752307584676) "/><path id="svg_24" d="m288.6942864958894,22.08645686609153 c41.496000723254944,51.13737716868747 -20.59934224332604,128.6928828432998 -96.83820887218599,259.2970461248664 c-76.23886153211213,130.60416328156663 94.28987445429262,196.43733751447897 107.88120753677799,197.71152447332352 c13.59133435667234,1.2741869588445525 -66.25776135971246,-49.90583724735544 -40.98639219743899,-127.63124173687315 c25.271367888086512,-77.7254044895177 86.05010111521516,-121.72741368826712 101.29786322814192,-181.06203310953276 c15.247762112926754,-59.33461814707868 -112.85047041854988,-199.4526614527889 -71.35446969529494,-148.31529575178405 z" stroke-linecap="square" stroke-linejoin="round" stroke-width="0" stroke="#007fff" fill="#007fff" class=""/><path id="svg_25" d="m392.61689458547266,172.39661717226866 c3.6512336980474194,8.633114853272751 4.707157527589737,24.094082847462087 -0.9123994104980998,41.95099632182787 c-5.619558212274759,17.856913474365783 -12.817695180179406,30.974334378687235 -28.223097155280488,52.24922888641435 c-15.405421087905466,21.27489323354016 -28.888188344749455,34.97141172366511 -60.27363532314701,80.42988287409572 c-31.385446978397557,45.45847115043061 21.86122310452207,95.115171718471 12.56910257869579,78.55501869911268 c-9.292119251639319,-16.560153019358342 6.750588992106168,-46.864905973733634 22.246185565276022,-66.91869105457383 c15.495595298982895,-20.053785080840196 25.727510254922393,-29.20554881640191 40.835323317411415,-48.57196227461078 c15.107833449480362,-19.366432571013256 30.181564559194207,-50.272213142940736 31.28776780613253,-67.79416962375242 c1.106203246938322,-17.52195648081169 1.214887571966886,-23.116628547593255 -4.631798288282792,-42.359484096402966 c-5.8467253600454026,-19.242855548809718 -20.199953437824046,-44.807067277273546 -12.897449090307404,-27.540819732110627 z" stroke-linecap="square" stroke-linejoin="null" stroke-width="0" stroke="#007fff" fill="#007fff" class=""/><path id="svg_26" d="m359.5656864313472,467.06421153728434 c-6.59051925540132,11.674823380939454 -8.471061207472985,-24.580554686479346 3.25857132550117,-55.965341636032214 c11.729632532974152,-31.384786949552876 48.75569366314137,-58.98994165540252 64.67579836351987,-88.67918203487748 c15.92014292598727,-29.689279879270696 25.973847545488855,-74.58689088183975 13.21016260212095,-98.47173311785518 c-12.763605943776453,-23.88484223601543 2.2537806186172893,2.749021412285316 13.01254894667375,19.839624833545436 c10.758807827852186,17.090584308455743 16.813839820303418,29.64988838943802 16.544793969756427,57.597057810406795 c-0.26900762493822084,27.947188533773165 -7.5719400992730375,60.71445686598974 -55.78802577883941,103.56315357755845 c-48.21610479237075,42.848736211364425 -48.32333017333145,50.441595912127774 -54.91384942873277,62.11641929306724 z" stroke-linecap="square" stroke-linejoin="null" stroke-dasharray="null" stroke-width="0" stroke="#007fff" fill="#007fff" class=""/></g></g>
</svg>