<svg xmlns="http://www.w3.org/2000/svg" width="640" height="480"><rect id="backgroundrect" width="100%" height="100%" x="0" y="0" fill="none" stroke="none"/>
 <title>Gas Flame Logo</title>
 <defs>
  <linearGradient id="svg_199" x2="0.4960939884185791" y2="0.953125" x1="0.4921880066394806" y1="0.296875">
   <stop stop-color="#ff7f00" stop-opacity="0.996094" offset="0.007813"/>
   <stop offset="0.550781" stop-opacity="0.996094" stop-color="#bf0000"/>
   <stop stop-color="#000000" stop-opacity="0.992188" offset="1"/>
  </linearGradient>
  <linearGradient id="svg_200" x2="0.4960939884185791" y2="0.953125" x1="0.4921880066394806" y1="0.296875">
   <stop stop-color="#ff7f00" stop-opacity="0.996094" offset="0.007813"/>
   <stop offset="0.550781" stop-opacity="0.996094" stop-color="#bf0000"/>
   <stop stop-color="#000000" stop-opacity="0.992188" offset="1"/>
  </linearGradient>
  <linearGradient id="svg_201" x2="0.4960939884185791" y2="0.953125" x1="0.4921880066394806" y1="0.296875">
   <stop stop-color="#ff7f00" stop-opacity="0.996094" offset="0.007813"/>
   <stop offset="0.550781" stop-opacity="0.996094" stop-color="#bf0000"/>
   <stop stop-color="#000000" stop-opacity="0.992188" offset="1"/>
  </linearGradient>
 </defs>
 <g class="currentLayer">
  <title>Layer 1</title>
  
  
  
  
 <g class="selected" id="svg_1"><text xml:space="preserve" text-anchor="middle" font-family="Arial" font-size="24" id="svg_12" y="263.9670341014862" x="185.28572130203247" opacity="0.5" stroke-linecap="square" stroke-linejoin="null" stroke-dasharray="null" stroke-width="0" stroke="#096388" fill="#000000" class=""/><path id="svg_24" d="m301.28572130203247,76.4670341014862 c32.56665,40.133339 -16.166656,101 -76,203.5 c-59.83334,102.5 74.000031,154.166809 84.666702,155.166809 c10.666672,1 -52.000031,-39.166809 -32.166702,-100.166809 c19.833328,-61 67.53334,-95.533401 79.5,-142.100052 c11.966660000000001,-46.56665 -88.56665,-156.533278 -56,-116.399948 z" stroke-linecap="square" stroke-linejoin="round" stroke-width="0" stroke="#007fff" fill="#007fff" class=""/><path id="svg_25" d="m382.84565830203246,194.4325801014862 c2.86554,6.775391 3.6942440000000003,18.909378 -0.716064,32.923737 c-4.410309,14.014359 -10.059509,24.309097 -22.149887,41.005936 c-12.090393,16.696838 -22.67186,27.44606 -47.303604,63.122513 c-24.631744,35.676453 17.156998,74.647736 9.86441,61.651093 c-7.292587,-12.996643 5.297958,-36.780243 17.459122,-52.518738 c12.161163,-15.738495 20.191315,-22.920929 32.048141,-38.119965 c11.856842,-15.199051 23.68692,-39.454346 24.555084,-53.205826 c0.868164,-13.75148 0.953461,-18.142258 -3.635101,-33.244324 c-4.588593,-15.102066 -15.85321,-35.165222 -10.122101,-21.614426 z" stroke-linecap="square" stroke-linejoin="null" stroke-width="0" stroke="#007fff" fill="#007fff" class=""/><path id="svg_26" d="m356.90660130203247,425.6918881014862 c-5.172333,9.162567 -6.6482090000000005,-19.291168 2.557373,-43.922394 c9.205582,-24.631226 38.26416,-46.296143 50.758484,-69.59668 c12.494354,-23.300568 20.384644,-58.53685 10.367523,-77.282013 c-10.017059,-18.745163 1.7687990000000027,2.157471 10.212433,15.570419 c8.443665,13.412933 13.19574,23.269653 12.984589,45.202988 c-0.211121,21.93335 -5.942566,47.649567 -43.783234,81.277832 c-37.840683,33.628296 -37.924835,39.58728 -43.097168,48.749847 z" stroke-linecap="square" stroke-linejoin="null" stroke-dasharray="null" stroke-width="0" stroke="#007fff" fill="#007fff" class=""/></g></g>
</svg>